<svg width="32" height="32" viewBox="0 0 32 32" fill="none" xmlns="http://www.w3.org/2000/svg">
<path fill-rule="evenodd" clip-rule="evenodd" d="M28.8237 3.17593C29.8656 4.21784 30.0614 5.83652 29.2979 7.09677C33.4709 13.3168 32.8109 21.8179 27.3149 27.314C21.0669 33.562 10.934 33.562 4.68598 27.314C-1.56199 21.0669 -1.56199 10.9338 4.68598 4.68575C10.182 -0.810299 18.6839 -1.47131 24.9029 2.70173C26.1632 1.93826 27.7818 2.13403 28.8237 3.17593ZM25.8059 25.8059C20.3909 31.22 11.6089 31.22 6.19495 25.8059C0.779969 20.3909 0.779969 11.6088 6.19495 6.19377C10.9079 1.48073 18.1719 0.870726 23.5469 4.36276C23.1294 5.52761 23.4211 6.82877 24.296 7.70385C25.1709 8.57894 26.4719 8.871 27.6369 8.45379C31.1289 13.8278 30.5199 21.0929 25.8059 25.8059ZM11.605 8.7198H15.332V14.0898C15.0165 13.8121 14.6753 13.565 14.313 13.3518C13.8226 13.0603 13.3048 12.8174 12.767 12.6268L12.415 13.6868C12.421 13.6888 13.065 13.9058 13.76 14.3219C14.198 14.5849 14.723 14.9699 15.068 15.4509H8.72V11.6048C8.72 10.0115 10.0117 8.7198 11.605 8.7198ZM15.332 19.4719C15.268 19.5639 15.217 19.6219 15.184 19.6549C14.799 20.0399 14.288 20.2509 13.744 20.2509C13.2 20.2509 12.689 20.0399 12.304 19.6549C11.5101 18.859 11.5101 17.5707 12.304 16.7749C12.3878 16.6958 12.4801 16.626 12.579 16.5669H8.72V20.3949C8.72 21.9884 10.0115 23.2804 11.605 23.2809H15.332V19.4719ZM23.2809 16.5669H16.9919C17.7169 17.3199 18.8599 17.8309 19.3639 17.9979L19.0129 19.0579C18.4751 18.8673 17.9573 18.6244 17.4669 18.3329C17.0769 18.0999 16.7379 17.8539 16.4479 17.5949V23.2809H20.3959C21.9894 23.2804 23.2809 21.9884 23.2809 20.3949V16.5669ZM23.2809 15.4509V11.6048C23.2809 10.8397 22.9769 10.1059 22.4359 9.5648C21.8949 9.02376 21.161 8.7198 20.3959 8.7198H16.4479V12.7368C16.5218 12.6015 16.6121 12.4759 16.7169 12.3628C17.0979 11.9795 17.6165 11.7649 18.1569 11.7668C18.697 11.7651 19.2152 11.9798 19.5959 12.3628C19.9809 12.7478 20.1929 13.2588 20.1929 13.8028C20.1929 14.3469 19.9809 14.8579 19.5959 15.2429C19.5125 15.322 19.4206 15.3918 19.3219 15.4509H23.2809ZM18.8069 14.4528C18.629 14.6309 17.822 14.9549 16.708 15.2509C17.004 14.1378 17.329 13.3298 17.506 13.1518C17.6784 12.979 17.9125 12.8819 18.1567 12.8821C18.4008 12.8823 18.6348 12.9797 18.8069 13.1528C18.9801 13.3247 19.077 13.5589 19.076 13.8028C19.0767 14.0467 18.9798 14.2808 18.8069 14.4528ZM12.895 18.5668C13.0372 18.9103 13.3722 19.1345 13.7439 19.1349C13.9881 19.1357 14.2223 19.0384 14.3939 18.8649C14.5719 18.6879 14.8959 17.8809 15.1929 16.7669C14.0789 17.0629 13.2719 17.3869 13.0939 17.5649C12.8313 17.828 12.7528 18.2233 12.895 18.5668Z" fill="url(#paint0_linear_1394_875)"/>
<defs>
<linearGradient id="paint0_linear_1394_875" x1="0" y1="32" x2="32" y2="0" gradientUnits="userSpaceOnUse">
<stop stop-color="#629FFF"/>
<stop offset="1" stop-color="#3366FF"/>
</linearGradient>
</defs>
</svg>
